<svg id="Capa_1" enable-background="new 0 0 512 512" height="512" viewBox="0 0 512 512" width="512" xmlns="http://www.w3.org/2000/svg"><g><path d="m406.713 15.5h-301.425c-58.056 0-105.288 47.232-105.288 105.288 0 58.052 47.228 105.282 105.278 105.288h.005.004 301.425c58.056 0 105.287-47.232 105.287-105.288s-47.23-105.288-105.286-105.288z" fill="#3de9f2"/><path d="m512 120.79c0 58.05-47.23 105.29-105.29 105.29h-187.26v-210.58h187.26c58.06 0 105.29 47.23 105.29 105.29z" fill="#00cef2"/><path d="m406.713 196.075h-301.425c-41.514 0-75.288-33.774-75.288-75.287s33.774-75.288 75.288-75.288h301.425c41.513 0 75.287 33.774 75.287 75.288s-33.774 75.287-75.287 75.287z" fill="#70ffff"/><path d="m482 120.79c0 41.51-33.77 75.29-75.29 75.29h-187.26v-150.58h187.26c41.52 0 75.29 33.77 75.29 75.29z" fill="#3de9f2"/><path d="m391.95 313.31v115.19l-4.386 5h-198.769l-6.845-5.01-70.67-59.29c-7.77-6.53-12.6-16.08-13.24-26.2-.65-10.13 2.93-20.21 9.82-27.67 13.53-14.65 36.09-16.08 51.36-3.26l22.73 19.07v-187.14c0-20.68 16.82-37.5 37.5-37.5s37.5 16.82 37.5 37.5v114.07l94.95 10.51c22.83 2.53 40.05 21.76 40.05 44.73z" fill="#fddbcc"/><path d="m391.95 313.31v115.19l-4.39 5h-168.11v-327c20.68 0 37.5 16.82 37.5 37.5v114.07l94.95 10.51c22.83 2.53 40.05 21.76 40.05 44.73z" fill="#fbcdbe"/><path d="m391.95 428.5v53c0 8.28-6.72 15-15 15h-180c-8.28 0-15-6.72-15-15v-53z" fill="#00347b"/><path d="m391.95 428.5v53c0 8.28-6.72 15-15 15h-157.5v-68z" fill="#002860"/><path d="m416.507 79.894c-5.857-5.858-15.355-5.858-21.213 0l-49.394 49.393-19.394-19.393c-5.857-5.858-15.355-5.858-21.213 0s-5.858 15.355 0 21.213l30 30c5.857 5.858 15.355 5.859 21.213 0l60-60c5.859-5.858 5.859-15.356.001-21.213z" fill="#00cef2"/></g></svg>