<svg id="Social_Distancing" height="512" viewBox="0 0 64 64" width="512" xmlns="http://www.w3.org/2000/svg" data-name="Social Distancing"><path d="m32 30a9 9 0 0 1 -9-9v-6h18v6a9 9 0 0 1 -9 9z" fill="#ffddce"/><path d="m57 50h-7l-3-15h3z" fill="#ec455a"/><path d="m7 50h7l3-15h-3z" fill="#ec455a"/><path d="m50 61h-36v-28l18-2 18 2z" fill="#e9e9ea"/><path d="m34 45-1 6h-14l-1-6z" fill="#d77d41"/><path d="m24 45h4v3h-4z" fill="#d69c7a"/><path d="m14 51h36v6h-36z" fill="#fbdf63"/><path d="m36 52a2.006 2.006 0 0 1 -2 2h-4a2.006 2.006 0 0 1 -2-2v-1h8z" fill="#ff9811"/><path d="m36 38h14v3h-14z" fill="#2488ff"/><path d="m34 45h-16l1-5h14z" fill="#f79e5f"/><path d="m14 51h36v6h-36z" fill="none"/><path d="m34 45h-16l1-5h14z" fill="none"/><path d="m34 45h-16l1 6h14z" fill="none"/><path d="m24 45h4v3h-4z" fill="#fff"/><path d="m46.9 51h-8.8l-1.1-10h11z" fill="none"/><path d="m36 38h13v3h-13z" fill="none"/><path d="m36 31-4 4-3-3-1-6h8z" fill="#ffcbbe"/><path d="m32 35-5-2-5 1 6-8z" fill="#ec455a"/><path d="m32 35 5-2 5 1-6-8z" fill="#ec455a"/><path d="m21 11h22v4h-22z" fill="#9e2849"/><path d="m25 3h14a3 3 0 0 1 3 3v5a0 0 0 0 1 0 0h-20a0 0 0 0 1 0 0v-5a3 3 0 0 1 3-3z" fill="#ec455a"/><g fill="#ffcbbe"><path d="m11 54h6.5a3.5 3.5 0 0 1 3.5 3.5 3.5 3.5 0 0 1 -3.5 3.5h-9.5a3 3 0 0 1 -3-3v-.384a3 3 0 0 1 .243-1.182l2.757-6.434h6v4z"/><path d="m53 54h-6.5a3.5 3.5 0 0 0 -3.5 3.5 3.5 3.5 0 0 0 3.5 3.5h9.5a3 3 0 0 0 3-3v-.384a3 3 0 0 0 -.243-1.182l-2.757-6.434h-6v4z"/><path d="m21 15h2a0 0 0 0 1 0 0v5a0 0 0 0 1 0 0h-2a2 2 0 0 1 -2-2v-1a2 2 0 0 1 2-2z"/><path d="m43 15h2a0 0 0 0 1 0 0v5a0 0 0 0 1 0 0h-2a2 2 0 0 1 -2-2v-1a2 2 0 0 1 2-2z" transform="matrix(-1 0 0 -1 86 35)"/></g><path d="m40 24a3 3 0 0 1 -3-3h-10a3 3 0 0 1 -3 3h-.477a8.988 8.988 0 0 0 16.954 0z" fill="#5bcbfa"/><path d="m59.68 56.04-2.21-5.16a.931.931 0 0 0 .37-.34 1 1 0 0 0 .07-.96l-6.91-14.8v-1.78a.989.989 0 0 0 -.89-.99l-9.12-1.02-2.08-2.78a9.965 9.965 0 0 0 3.09-7.21h1a3.009 3.009 0 0 0 3-3v-1a3.01 3.01 0 0 0 -2-2.82v-3.18a1 1 0 0 0 -1-1v-4a4 4 0 0 0 -4-4h-14a4 4 0 0 0 -4 4v4a1 1 0 0 0 -1 1v3.18a3.01 3.01 0 0 0 -2 2.82v1a3.009 3.009 0 0 0 3 3h1a9.965 9.965 0 0 0 3.09 7.21l-2.08 2.78-9.12 1.02a.989.989 0 0 0 -.89.99v1.78l-6.91 14.8a1 1 0 0 0 .07.96.931.931 0 0 0 .37.34l-2.21 5.16a4.056 4.056 0 0 0 -.32 1.58v.38a4 4 0 0 0 4 4h48a4 4 0 0 0 4-4v-.38a4.056 4.056 0 0 0 -.32-1.58zm-8.68-16.53 4.43 9.49h-4.43zm-11.37-7-2.43-.49a1 1 0 0 0 -.57.05l-2.72 1.09 1.18-2.66a9.368 9.368 0 0 0 2.24-1.05zm.37-11.51a8 8 0 0 1 -.26 1.97 1.974 1.974 0 0 1 -1.71-1.71l1.97-2.96zm-3.54-1h-8.92l-2.67-4h14.26zm7.54-3v1a1 1 0 0 1 -1 1h-1v-3h1a1 1 0 0 1 1 1zm-21-11a2.006 2.006 0 0 1 2-2h14a2.006 2.006 0 0 1 2 2v4h-18zm-1 13h-1a1 1 0 0 1 -1-1v-1a1 1 0 0 1 1-1h1zm0-5v-2h20v2zm2 7v-2.7l1.97 2.96a1.974 1.974 0 0 1 -1.71 1.71 8 8 0 0 1 -.26-1.97zm1 3.86a4 4 0 0 0 2.87-2.86h8.26a4 4 0 0 0 2.87 2.86 7.988 7.988 0 0 1 -14 0zm7.7 6.1-.7 1.58-.7-1.58c.23.02.46.04.7.04s.47-.02.7-.04zm-6.03-1.51a9.8 9.8 0 0 0 2.24 1.06l1.18 2.65-2.72-1.09a1.009 1.009 0 0 0 -.57-.05l-2.43.49zm-11.67 4.45 6.36-.71-.16.21a1 1 0 0 0 -.05 1.13 1.021 1.021 0 0 0 1.05.45l4.7-.94 4.73 1.89a1.013 1.013 0 0 0 .74 0l4.73-1.89 4.7.94a1.014 1.014 0 0 0 1.05-.45 1 1 0 0 0 -.05-1.13l-.16-.21 6.36.71v3.1h-2v-2h-2v2h-9a1 1 0 0 0 -1 1v3a1 1 0 0 0 1 1h.1l.88 8h-2.8l.81-4.84a.808.808 0 0 0 .01-.16 1.5 1.5 0 0 0 -.02-.2l-1-5a1 1 0 0 0 -.98-.8h-14a1 1 0 0 0 -.98.8l-1 4.98a1.355 1.355 0 0 0 -.02.2v.02a1.225 1.225 0 0 0 .02.19l.8 4.81h-2.82zm34 8.1v8h-.98l.88-8zm-12-2v-1h11v1zm9.88 2-.88 8h-7l-.88-8zm-27.66 2 .6-3h12.36l.6 3zm7.78 2v1h-2v-1zm-4 0v2a1 1 0 0 0 1 1h4a1 1 0 0 0 1-1v-2h3.82l-.67 4h-12.3l-.67-4zm6 6h6v1h-6zm-16-12.49v9.49h-4.43zm4.5 20.49h-9.5a2.006 2.006 0 0 1 -2-2v-.38a1.925 1.925 0 0 1 .16-.79l2.5-5.83h4.34v2h-2v2h6.5a2.5 2.5 0 0 1 0 5zm3.74 0a4.449 4.449 0 0 0 .71-2h20.1a4.449 4.449 0 0 0 .71 2zm21.04-4h-20.56a4.493 4.493 0 0 0 -4.22-3h-2.5v-1h12v1a2.006 2.006 0 0 0 2 2h6a2.006 2.006 0 0 0 2-2v-1h12v1h-2.5a4.493 4.493 0 0 0 -4.22 3zm15.72 2a2.006 2.006 0 0 1 -2 2h-9.5a2.5 2.5 0 0 1 0-5h6.5v-2h-2v-2h4.34l2.5 5.83a1.925 1.925 0 0 1 .16.79z"/></svg>